<mxfile host="app.diagrams.net" modified="2024-05-28T07:02:08.004Z" agent="Mozilla/5.0 (Windows NT 10.0; Win64; x64) AppleWebKit/537.36 (KHTML, like Gecko) Chrome/125.0.0.0 Safari/537.36 Edg/125.0.0.0" etag="fMUOzf4lPATdhKHBr0Id" version="24.4.8" type="github">
  <diagram name="第 1 页" id="gZSXjOqn6M294fVYaaOV">
    <mxGraphModel dx="1427" dy="789" grid="1" gridSize="10" guides="1" tooltips="1" connect="1" arrows="1" fold="1" page="1" pageScale="1" pageWidth="827" pageHeight="1169" math="0" shadow="0">
      <root>
        <mxCell id="0" />
        <mxCell id="1" parent="0" />
        <mxCell id="o4GmKYUlnnPbnh4WFb3C-1" value="" style="rounded=0;whiteSpace=wrap;html=1;fillColor=#f5f5f5;fontColor=#333333;strokeColor=#666666;" vertex="1" parent="1">
          <mxGeometry x="100" y="195" width="536" height="465" as="geometry" />
        </mxCell>
        <mxCell id="o4GmKYUlnnPbnh4WFb3C-4" value="RTC" style="rounded=0;whiteSpace=wrap;html=1;" vertex="1" parent="1">
          <mxGeometry x="550" y="350" width="70" height="60" as="geometry" />
        </mxCell>
        <mxCell id="o4GmKYUlnnPbnh4WFb3C-5" value="RTC寄存器" style="rounded=0;whiteSpace=wrap;html=1;" vertex="1" parent="1">
          <mxGeometry x="550" y="310" width="70" height="40" as="geometry" />
        </mxCell>
        <mxCell id="o4GmKYUlnnPbnh4WFb3C-7" value="时间计数器" style="rounded=0;whiteSpace=wrap;html=1;" vertex="1" parent="1">
          <mxGeometry x="550" y="410" width="70" height="40" as="geometry" />
        </mxCell>
        <mxCell id="o4GmKYUlnnPbnh4WFb3C-8" value="FRAM阵列&lt;div&gt;lockout&lt;/div&gt;" style="rounded=0;whiteSpace=wrap;html=1;align=center;" vertex="1" parent="1">
          <mxGeometry x="530" y="210" width="100" height="60" as="geometry" />
        </mxCell>
        <mxCell id="o4GmKYUlnnPbnh4WFb3C-9" value="" style="endArrow=none;html=1;rounded=0;" edge="1" parent="1">
          <mxGeometry width="50" height="50" relative="1" as="geometry">
            <mxPoint x="560" y="240" as="sourcePoint" />
            <mxPoint x="600" y="239.9" as="targetPoint" />
            <Array as="points">
              <mxPoint x="580" y="240" />
              <mxPoint x="590" y="240" />
            </Array>
          </mxGeometry>
        </mxCell>
        <mxCell id="o4GmKYUlnnPbnh4WFb3C-10" value="特殊功能寄存器" style="rounded=0;whiteSpace=wrap;html=1;" vertex="1" parent="1">
          <mxGeometry x="420" y="290" width="76" height="40" as="geometry" />
        </mxCell>
        <mxCell id="o4GmKYUlnnPbnh4WFb3C-11" value="S/N" style="rounded=0;whiteSpace=wrap;html=1;" vertex="1" parent="1">
          <mxGeometry x="420" y="330" width="76" height="40" as="geometry" />
        </mxCell>
        <mxCell id="o4GmKYUlnnPbnh4WFb3C-12" value="RTC&amp;nbsp; Cal" style="rounded=0;whiteSpace=wrap;html=1;" vertex="1" parent="1">
          <mxGeometry x="420" y="370" width="76" height="40" as="geometry" />
        </mxCell>
        <mxCell id="o4GmKYUlnnPbnh4WFb3C-13" value="二线接口&lt;div&gt;lockout&lt;/div&gt;" style="rounded=0;whiteSpace=wrap;html=1;align=center;" vertex="1" parent="1">
          <mxGeometry x="170" y="230" width="100" height="60" as="geometry" />
        </mxCell>
        <mxCell id="o4GmKYUlnnPbnh4WFb3C-15" value="" style="endArrow=none;html=1;rounded=0;" edge="1" parent="1">
          <mxGeometry width="50" height="50" relative="1" as="geometry">
            <mxPoint x="242.75" y="259.9" as="sourcePoint" />
            <mxPoint x="197.25" y="259.9" as="targetPoint" />
            <Array as="points">
              <mxPoint x="242.25" y="259.65999999999997" />
              <mxPoint x="234.75" y="259.9" />
            </Array>
          </mxGeometry>
        </mxCell>
        <mxCell id="o4GmKYUlnnPbnh4WFb3C-16" value="看门狗" style="rounded=0;whiteSpace=wrap;html=1;" vertex="1" parent="1">
          <mxGeometry x="300" y="320" width="76" height="40" as="geometry" />
        </mxCell>
        <mxCell id="o4GmKYUlnnPbnh4WFb3C-17" value="LV检测" style="rounded=0;whiteSpace=wrap;html=1;" vertex="1" parent="1">
          <mxGeometry x="300" y="360" width="76" height="40" as="geometry" />
        </mxCell>
        <mxCell id="o4GmKYUlnnPbnh4WFb3C-19" value="" style="endArrow=classic;startArrow=classic;html=1;rounded=0;entryX=0;entryY=0.5;entryDx=0;entryDy=0;exitX=0.985;exitY=0.143;exitDx=0;exitDy=0;exitPerimeter=0;" edge="1" parent="1" source="o4GmKYUlnnPbnh4WFb3C-13">
          <mxGeometry width="50" height="50" relative="1" as="geometry">
            <mxPoint x="270" y="242.5" as="sourcePoint" />
            <mxPoint x="530" y="237.5" as="targetPoint" />
          </mxGeometry>
        </mxCell>
        <mxCell id="o4GmKYUlnnPbnh4WFb3C-20" value="" style="endArrow=none;html=1;rounded=0;entryX=-0.005;entryY=0.824;entryDx=0;entryDy=0;exitX=0.5;exitY=0;exitDx=0;exitDy=0;entryPerimeter=0;" edge="1" parent="1" source="o4GmKYUlnnPbnh4WFb3C-16" target="o4GmKYUlnnPbnh4WFb3C-8">
          <mxGeometry width="50" height="50" relative="1" as="geometry">
            <mxPoint x="400" y="370" as="sourcePoint" />
            <mxPoint x="450" y="320" as="targetPoint" />
            <Array as="points">
              <mxPoint x="338" y="260" />
            </Array>
          </mxGeometry>
        </mxCell>
        <mxCell id="o4GmKYUlnnPbnh4WFb3C-22" value="" style="endArrow=classic;html=1;rounded=0;entryX=0.795;entryY=-0.02;entryDx=0;entryDy=0;entryPerimeter=0;" edge="1" parent="1" target="o4GmKYUlnnPbnh4WFb3C-10">
          <mxGeometry width="50" height="50" relative="1" as="geometry">
            <mxPoint x="480" y="240" as="sourcePoint" />
            <mxPoint x="472.36400000000003" y="290.00000000000006" as="targetPoint" />
          </mxGeometry>
        </mxCell>
        <mxCell id="o4GmKYUlnnPbnh4WFb3C-23" value="" style="endArrow=classic;html=1;rounded=0;entryX=0.25;entryY=0;entryDx=0;entryDy=0;" edge="1" parent="1" target="o4GmKYUlnnPbnh4WFb3C-5">
          <mxGeometry width="50" height="50" relative="1" as="geometry">
            <mxPoint x="480" y="270" as="sourcePoint" />
            <mxPoint x="550" y="280" as="targetPoint" />
            <Array as="points">
              <mxPoint x="520" y="270" />
            </Array>
          </mxGeometry>
        </mxCell>
        <mxCell id="o4GmKYUlnnPbnh4WFb3C-26" value="" style="shape=xor;whiteSpace=wrap;html=1;direction=west;" vertex="1" parent="1">
          <mxGeometry x="210" y="320" width="60" height="80" as="geometry" />
        </mxCell>
        <mxCell id="o4GmKYUlnnPbnh4WFb3C-28" value="" style="endArrow=classic;html=1;rounded=0;entryX=0.798;entryY=-0.001;entryDx=0;entryDy=0;entryPerimeter=0;" edge="1" parent="1" target="o4GmKYUlnnPbnh4WFb3C-16">
          <mxGeometry width="50" height="50" relative="1" as="geometry">
            <mxPoint x="360" y="240" as="sourcePoint" />
            <mxPoint x="360" y="290" as="targetPoint" />
          </mxGeometry>
        </mxCell>
        <mxCell id="o4GmKYUlnnPbnh4WFb3C-30" value="" style="triangle;whiteSpace=wrap;html=1;direction=west;" vertex="1" parent="1">
          <mxGeometry x="230" y="410" width="40" height="70" as="geometry" />
        </mxCell>
        <mxCell id="o4GmKYUlnnPbnh4WFb3C-31" value="" style="triangle;whiteSpace=wrap;html=1;strokeColor=default;align=center;verticalAlign=middle;fontFamily=Helvetica;fontSize=12;fontColor=default;fillColor=default;direction=south;" vertex="1" parent="1">
          <mxGeometry x="150" y="385" width="20" height="10" as="geometry" />
        </mxCell>
        <mxCell id="o4GmKYUlnnPbnh4WFb3C-32" value="" style="line;strokeWidth=2;direction=south;html=1;strokeColor=default;align=center;verticalAlign=middle;fontFamily=Helvetica;fontSize=12;fontColor=default;fillColor=default;" vertex="1" parent="1">
          <mxGeometry x="180" y="345" width="10" height="25" as="geometry" />
        </mxCell>
        <mxCell id="o4GmKYUlnnPbnh4WFb3C-35" value="" style="line;strokeWidth=2;direction=south;html=1;strokeColor=default;align=center;verticalAlign=middle;fontFamily=Helvetica;fontSize=12;fontColor=default;fillColor=default;" vertex="1" parent="1">
          <mxGeometry x="190" y="350" width="10" height="15" as="geometry" />
        </mxCell>
        <mxCell id="o4GmKYUlnnPbnh4WFb3C-36" value="" style="endArrow=none;html=1;rounded=0;fontFamily=Helvetica;fontSize=12;fontColor=default;entryX=1.002;entryY=0.519;entryDx=0;entryDy=0;entryPerimeter=0;exitX=0.576;exitY=0.451;exitDx=0;exitDy=0;exitPerimeter=0;" edge="1" parent="1" source="o4GmKYUlnnPbnh4WFb3C-35" target="o4GmKYUlnnPbnh4WFb3C-26">
          <mxGeometry width="50" height="50" relative="1" as="geometry">
            <mxPoint x="260" y="440" as="sourcePoint" />
            <mxPoint x="310" y="390" as="targetPoint" />
          </mxGeometry>
        </mxCell>
        <mxCell id="o4GmKYUlnnPbnh4WFb3C-38" value="" style="endArrow=none;html=1;rounded=0;fontFamily=Helvetica;fontSize=12;fontColor=default;entryX=0.01;entryY=0.619;entryDx=0;entryDy=0;entryPerimeter=0;exitX=0.205;exitY=0.695;exitDx=0;exitDy=0;exitPerimeter=0;" edge="1" parent="1" source="o4GmKYUlnnPbnh4WFb3C-26" target="o4GmKYUlnnPbnh4WFb3C-16">
          <mxGeometry width="50" height="50" relative="1" as="geometry">
            <mxPoint x="270" y="346" as="sourcePoint" />
            <mxPoint x="285" y="345" as="targetPoint" />
          </mxGeometry>
        </mxCell>
        <mxCell id="o4GmKYUlnnPbnh4WFb3C-39" value="" style="endArrow=none;html=1;rounded=0;fontFamily=Helvetica;fontSize=12;fontColor=default;entryX=0.01;entryY=0.619;entryDx=0;entryDy=0;entryPerimeter=0;exitX=0.175;exitY=0.25;exitDx=0;exitDy=0;exitPerimeter=0;" edge="1" parent="1" source="o4GmKYUlnnPbnh4WFb3C-26">
          <mxGeometry width="50" height="50" relative="1" as="geometry">
            <mxPoint x="257" y="379.5" as="sourcePoint" />
            <mxPoint x="300" y="380.5" as="targetPoint" />
          </mxGeometry>
        </mxCell>
        <mxCell id="o4GmKYUlnnPbnh4WFb3C-40" value="" style="endArrow=none;html=1;rounded=0;fontFamily=Helvetica;fontSize=12;fontColor=default;exitX=0.25;exitY=0.5;exitDx=0;exitDy=0;exitPerimeter=0;" edge="1" parent="1" source="o4GmKYUlnnPbnh4WFb3C-32">
          <mxGeometry width="50" height="50" relative="1" as="geometry">
            <mxPoint x="257" y="309.88" as="sourcePoint" />
            <mxPoint x="340" y="310" as="targetPoint" />
            <Array as="points">
              <mxPoint x="150" y="350" />
              <mxPoint x="150" y="310" />
            </Array>
          </mxGeometry>
        </mxCell>
        <mxCell id="o4GmKYUlnnPbnh4WFb3C-41" value="" style="endArrow=none;html=1;rounded=0;fontFamily=Helvetica;fontSize=12;fontColor=default;entryX=0.5;entryY=1;entryDx=0;entryDy=0;" edge="1" parent="1" target="o4GmKYUlnnPbnh4WFb3C-13">
          <mxGeometry width="50" height="50" relative="1" as="geometry">
            <mxPoint x="220" y="310" as="sourcePoint" />
            <mxPoint x="360" y="330" as="targetPoint" />
          </mxGeometry>
        </mxCell>
        <mxCell id="o4GmKYUlnnPbnh4WFb3C-42" value="" style="endArrow=none;html=1;rounded=0;fontFamily=Helvetica;fontSize=12;fontColor=default;entryX=0.75;entryY=0.5;entryDx=0;entryDy=0;entryPerimeter=0;exitX=0;exitY=0.5;exitDx=0;exitDy=0;" edge="1" parent="1" source="o4GmKYUlnnPbnh4WFb3C-31" target="o4GmKYUlnnPbnh4WFb3C-32">
          <mxGeometry width="50" height="50" relative="1" as="geometry">
            <mxPoint x="310" y="380" as="sourcePoint" />
            <mxPoint x="360" y="330" as="targetPoint" />
            <Array as="points">
              <mxPoint x="160" y="364" />
            </Array>
          </mxGeometry>
        </mxCell>
        <mxCell id="o4GmKYUlnnPbnh4WFb3C-43" value="" style="triangle;whiteSpace=wrap;html=1;direction=east;" vertex="1" parent="1">
          <mxGeometry x="270" y="500" width="40" height="70" as="geometry" />
        </mxCell>
        <mxCell id="o4GmKYUlnnPbnh4WFb3C-44" value="" style="ellipse;whiteSpace=wrap;html=1;aspect=fixed;strokeColor=default;align=center;verticalAlign=middle;fontFamily=Helvetica;fontSize=12;fontColor=default;fillColor=default;" vertex="1" parent="1">
          <mxGeometry x="320" y="440" as="geometry" />
        </mxCell>
        <mxCell id="o4GmKYUlnnPbnh4WFb3C-45" value="" style="rounded=0;whiteSpace=wrap;html=1;strokeColor=default;align=center;verticalAlign=middle;fontFamily=Helvetica;fontSize=12;fontColor=default;fillColor=default;" vertex="1" parent="1">
          <mxGeometry x="180" y="430" width="20" height="60" as="geometry" />
        </mxCell>
        <mxCell id="o4GmKYUlnnPbnh4WFb3C-46" value="" style="endArrow=classic;html=1;rounded=0;fontFamily=Helvetica;fontSize=12;fontColor=default;entryX=1;entryY=0.25;entryDx=0;entryDy=0;exitX=1;exitY=0.5;exitDx=0;exitDy=0;" edge="1" parent="1" source="o4GmKYUlnnPbnh4WFb3C-30" target="o4GmKYUlnnPbnh4WFb3C-45">
          <mxGeometry width="50" height="50" relative="1" as="geometry">
            <mxPoint x="340" y="480" as="sourcePoint" />
            <mxPoint x="390" y="430" as="targetPoint" />
          </mxGeometry>
        </mxCell>
        <mxCell id="o4GmKYUlnnPbnh4WFb3C-47" value="" style="endArrow=classic;html=1;rounded=0;fontFamily=Helvetica;fontSize=12;fontColor=default;entryX=0.97;entryY=0.934;entryDx=0;entryDy=0;entryPerimeter=0;exitX=-0.01;exitY=0.831;exitDx=0;exitDy=0;exitPerimeter=0;" edge="1" parent="1" source="o4GmKYUlnnPbnh4WFb3C-4" target="o4GmKYUlnnPbnh4WFb3C-45">
          <mxGeometry width="50" height="50" relative="1" as="geometry">
            <mxPoint x="340" y="480" as="sourcePoint" />
            <mxPoint x="390" y="430" as="targetPoint" />
            <Array as="points">
              <mxPoint x="520" y="400" />
              <mxPoint x="520" y="450" />
              <mxPoint x="520" y="490" />
              <mxPoint x="460" y="490" />
            </Array>
          </mxGeometry>
        </mxCell>
        <mxCell id="o4GmKYUlnnPbnh4WFb3C-48" value="512Hz" style="text;html=1;align=center;verticalAlign=middle;whiteSpace=wrap;rounded=0;fontFamily=Helvetica;fontSize=12;fontColor=default;" vertex="1" parent="1">
          <mxGeometry x="400" y="460" width="60" height="30" as="geometry" />
        </mxCell>
        <mxCell id="o4GmKYUlnnPbnh4WFb3C-50" value="PFI" style="rounded=0;whiteSpace=wrap;html=1;strokeColor=default;align=center;verticalAlign=middle;fontFamily=Helvetica;fontSize=12;fontColor=default;fillColor=default;" vertex="1" parent="1">
          <mxGeometry x="60" y="420" width="40" height="40" as="geometry" />
        </mxCell>
        <mxCell id="o4GmKYUlnnPbnh4WFb3C-51" value="" style="endArrow=none;html=1;rounded=0;fontFamily=Helvetica;fontSize=12;fontColor=default;entryX=1;entryY=0.5;entryDx=0;entryDy=0;" edge="1" parent="1" target="o4GmKYUlnnPbnh4WFb3C-50">
          <mxGeometry width="50" height="50" relative="1" as="geometry">
            <mxPoint x="270" y="425" as="sourcePoint" />
            <mxPoint x="100" y="410" as="targetPoint" />
            <Array as="points">
              <mxPoint x="285" y="425" />
              <mxPoint x="285" y="405" />
              <mxPoint x="165" y="405" />
              <mxPoint x="165" y="440" />
              <mxPoint x="140" y="440" />
              <mxPoint x="110" y="440" />
            </Array>
          </mxGeometry>
        </mxCell>
        <mxCell id="o4GmKYUlnnPbnh4WFb3C-52" value="" style="edgeLabel;html=1;align=center;verticalAlign=middle;resizable=0;points=[];strokeColor=default;fontFamily=Helvetica;fontSize=12;fontColor=default;fillColor=default;" vertex="1" connectable="0" parent="o4GmKYUlnnPbnh4WFb3C-51">
          <mxGeometry x="-0.9088" relative="1" as="geometry">
            <mxPoint as="offset" />
          </mxGeometry>
        </mxCell>
        <mxCell id="o4GmKYUlnnPbnh4WFb3C-53" value="" style="endArrow=none;html=1;rounded=0;fontFamily=Helvetica;fontSize=12;fontColor=default;entryX=0;entryY=0.25;entryDx=0;entryDy=0;exitX=-0.044;exitY=0.451;exitDx=0;exitDy=0;exitPerimeter=0;" edge="1" parent="1" source="o4GmKYUlnnPbnh4WFb3C-54" target="o4GmKYUlnnPbnh4WFb3C-30">
          <mxGeometry width="50" height="50" relative="1" as="geometry">
            <mxPoint x="260" y="490" as="sourcePoint" />
            <mxPoint x="310" y="440" as="targetPoint" />
          </mxGeometry>
        </mxCell>
        <mxCell id="o4GmKYUlnnPbnh4WFb3C-54" value="1.2V" style="text;html=1;align=center;verticalAlign=middle;whiteSpace=wrap;rounded=0;fontFamily=Helvetica;fontSize=12;fontColor=default;" vertex="1" parent="1">
          <mxGeometry x="300" y="450" width="60" height="30" as="geometry" />
        </mxCell>
        <mxCell id="o4GmKYUlnnPbnh4WFb3C-57" value="" style="endArrow=none;html=1;rounded=0;fontFamily=Helvetica;fontSize=12;fontColor=default;entryX=0;entryY=0.25;entryDx=0;entryDy=0;exitX=0.303;exitY=0.691;exitDx=0;exitDy=0;exitPerimeter=0;" edge="1" parent="1">
          <mxGeometry width="50" height="50" relative="1" as="geometry">
            <mxPoint x="270" y="520" as="sourcePoint" />
            <mxPoint x="240" y="520" as="targetPoint" />
          </mxGeometry>
        </mxCell>
        <mxCell id="o4GmKYUlnnPbnh4WFb3C-58" value="2.5V" style="text;html=1;align=center;verticalAlign=middle;whiteSpace=wrap;rounded=0;fontFamily=Helvetica;fontSize=12;fontColor=default;" vertex="1" parent="1">
          <mxGeometry x="200" y="500" width="60" height="30" as="geometry" />
        </mxCell>
        <mxCell id="o4GmKYUlnnPbnh4WFb3C-59" value="" style="endArrow=none;html=1;rounded=0;fontFamily=Helvetica;fontSize=12;fontColor=default;entryX=0;entryY=0.5;entryDx=0;entryDy=0;exitX=1;exitY=0.5;exitDx=0;exitDy=0;" edge="1" parent="1" source="o4GmKYUlnnPbnh4WFb3C-83">
          <mxGeometry width="50" height="50" relative="1" as="geometry">
            <mxPoint x="90" y="590" as="sourcePoint" />
            <mxPoint x="279.999999999991" y="590" as="targetPoint" />
          </mxGeometry>
        </mxCell>
        <mxCell id="o4GmKYUlnnPbnh4WFb3C-60" value="" style="ellipse;whiteSpace=wrap;html=1;aspect=fixed;strokeColor=default;align=center;verticalAlign=middle;fontFamily=Helvetica;fontSize=12;fontColor=default;fillColor=default;" vertex="1" parent="1">
          <mxGeometry x="280" y="585" width="10" height="10" as="geometry" />
        </mxCell>
        <mxCell id="o4GmKYUlnnPbnh4WFb3C-63" value="" style="ellipse;whiteSpace=wrap;html=1;aspect=fixed;strokeColor=default;align=center;verticalAlign=middle;fontFamily=Helvetica;fontSize=12;fontColor=default;fillColor=default;" vertex="1" parent="1">
          <mxGeometry x="333" y="610" width="10" height="10" as="geometry" />
        </mxCell>
        <mxCell id="o4GmKYUlnnPbnh4WFb3C-64" value="" style="ellipse;whiteSpace=wrap;html=1;aspect=fixed;strokeColor=default;align=center;verticalAlign=middle;fontFamily=Helvetica;fontSize=12;fontColor=default;fillColor=default;" vertex="1" parent="1">
          <mxGeometry x="280" y="620" width="10" height="10" as="geometry" />
        </mxCell>
        <mxCell id="o4GmKYUlnnPbnh4WFb3C-65" value="" style="endArrow=none;html=1;rounded=0;fontFamily=Helvetica;fontSize=12;fontColor=default;entryX=1;entryY=0.5;entryDx=0;entryDy=0;" edge="1" parent="1" target="o4GmKYUlnnPbnh4WFb3C-43">
          <mxGeometry width="50" height="50" relative="1" as="geometry">
            <mxPoint x="320" y="535" as="sourcePoint" />
            <mxPoint x="340" y="540" as="targetPoint" />
          </mxGeometry>
        </mxCell>
        <mxCell id="o4GmKYUlnnPbnh4WFb3C-69" value="" style="endArrow=none;html=1;rounded=0;fontFamily=Helvetica;fontSize=12;fontColor=default;exitX=1;exitY=0.5;exitDx=0;exitDy=0;entryX=0;entryY=0.5;entryDx=0;entryDy=0;" edge="1" parent="1" source="o4GmKYUlnnPbnh4WFb3C-60" target="o4GmKYUlnnPbnh4WFb3C-63">
          <mxGeometry width="50" height="50" relative="1" as="geometry">
            <mxPoint x="300" y="590" as="sourcePoint" />
            <mxPoint x="350" y="540" as="targetPoint" />
          </mxGeometry>
        </mxCell>
        <mxCell id="o4GmKYUlnnPbnh4WFb3C-70" value="" style="endArrow=none;dashed=1;html=1;dashPattern=1 3;strokeWidth=2;rounded=0;fontFamily=Helvetica;fontSize=12;fontColor=default;" edge="1" parent="1">
          <mxGeometry width="50" height="50" relative="1" as="geometry">
            <mxPoint x="320" y="610" as="sourcePoint" />
            <mxPoint x="320" y="540" as="targetPoint" />
          </mxGeometry>
        </mxCell>
        <mxCell id="o4GmKYUlnnPbnh4WFb3C-71" value="" style="endArrow=none;html=1;rounded=0;fontFamily=Helvetica;fontSize=12;fontColor=default;entryX=0;entryY=0.5;entryDx=0;entryDy=0;exitX=1;exitY=0.5;exitDx=0;exitDy=0;" edge="1" parent="1" source="o4GmKYUlnnPbnh4WFb3C-85">
          <mxGeometry width="50" height="50" relative="1" as="geometry">
            <mxPoint x="90" y="624.5" as="sourcePoint" />
            <mxPoint x="280" y="625.5" as="targetPoint" />
          </mxGeometry>
        </mxCell>
        <mxCell id="o4GmKYUlnnPbnh4WFb3C-72" value="" style="endArrow=none;html=1;rounded=0;fontFamily=Helvetica;fontSize=12;fontColor=default;entryX=0.006;entryY=0.707;entryDx=0;entryDy=0;entryPerimeter=0;" edge="1" parent="1">
          <mxGeometry width="50" height="50" relative="1" as="geometry">
            <mxPoint x="230" y="590" as="sourcePoint" />
            <mxPoint x="270.24" y="539.49" as="targetPoint" />
            <Array as="points">
              <mxPoint x="230" y="540" />
            </Array>
          </mxGeometry>
        </mxCell>
        <mxCell id="o4GmKYUlnnPbnh4WFb3C-75" value="" style="endArrow=none;html=1;rounded=0;fontFamily=Helvetica;fontSize=12;fontColor=default;entryX=0.5;entryY=1;entryDx=0;entryDy=0;exitX=1;exitY=1;exitDx=0;exitDy=0;" edge="1" parent="1" source="o4GmKYUlnnPbnh4WFb3C-63" target="o4GmKYUlnnPbnh4WFb3C-7">
          <mxGeometry width="50" height="50" relative="1" as="geometry">
            <mxPoint x="490" y="570" as="sourcePoint" />
            <mxPoint x="540" y="520" as="targetPoint" />
            <Array as="points">
              <mxPoint x="585" y="620" />
            </Array>
          </mxGeometry>
        </mxCell>
        <mxCell id="o4GmKYUlnnPbnh4WFb3C-76" value="开关电源" style="text;html=1;align=center;verticalAlign=middle;whiteSpace=wrap;rounded=0;fontFamily=Helvetica;fontSize=12;fontColor=default;" vertex="1" parent="1">
          <mxGeometry x="436" y="590" width="60" height="30" as="geometry" />
        </mxCell>
        <mxCell id="o4GmKYUlnnPbnh4WFb3C-77" value="A1&amp;nbsp; A0" style="rounded=0;whiteSpace=wrap;html=1;strokeColor=default;align=center;verticalAlign=middle;fontFamily=Helvetica;fontSize=12;fontColor=default;fillColor=default;" vertex="1" parent="1">
          <mxGeometry x="60" y="210" width="40" height="30" as="geometry" />
        </mxCell>
        <mxCell id="o4GmKYUlnnPbnh4WFb3C-78" value="SCL" style="rounded=0;whiteSpace=wrap;html=1;strokeColor=default;align=center;verticalAlign=middle;fontFamily=Helvetica;fontSize=12;fontColor=default;fillColor=default;" vertex="1" parent="1">
          <mxGeometry x="60" y="240" width="40" height="30" as="geometry" />
        </mxCell>
        <mxCell id="o4GmKYUlnnPbnh4WFb3C-79" value="SDA" style="rounded=0;whiteSpace=wrap;html=1;strokeColor=default;align=center;verticalAlign=middle;fontFamily=Helvetica;fontSize=12;fontColor=default;fillColor=default;" vertex="1" parent="1">
          <mxGeometry x="60" y="270" width="40" height="30" as="geometry" />
        </mxCell>
        <mxCell id="o4GmKYUlnnPbnh4WFb3C-80" value="RST" style="rounded=0;whiteSpace=wrap;html=1;strokeColor=default;align=center;verticalAlign=middle;fontFamily=Helvetica;fontSize=12;fontColor=default;fillColor=default;" vertex="1" parent="1">
          <mxGeometry x="60" y="335" width="40" height="30" as="geometry" />
        </mxCell>
        <mxCell id="o4GmKYUlnnPbnh4WFb3C-81" value="CAL/PF0" style="rounded=0;whiteSpace=wrap;html=1;strokeColor=default;align=center;verticalAlign=middle;fontFamily=Helvetica;fontSize=12;fontColor=default;fillColor=default;" vertex="1" parent="1">
          <mxGeometry x="40" y="480" width="60" height="30" as="geometry" />
        </mxCell>
        <mxCell id="o4GmKYUlnnPbnh4WFb3C-82" value="" style="endArrow=none;html=1;rounded=0;fontFamily=Helvetica;fontSize=12;fontColor=default;entryX=0.017;entryY=0.604;entryDx=0;entryDy=0;entryPerimeter=0;exitX=-0.001;exitY=0.642;exitDx=0;exitDy=0;exitPerimeter=0;" edge="1" parent="1" source="o4GmKYUlnnPbnh4WFb3C-1" target="o4GmKYUlnnPbnh4WFb3C-45">
          <mxGeometry width="50" height="50" relative="1" as="geometry">
            <mxPoint x="270" y="500" as="sourcePoint" />
            <mxPoint x="320" y="450" as="targetPoint" />
            <Array as="points">
              <mxPoint x="130" y="497" />
              <mxPoint x="130" y="466" />
            </Array>
          </mxGeometry>
        </mxCell>
        <mxCell id="o4GmKYUlnnPbnh4WFb3C-83" value="VDD" style="rounded=0;whiteSpace=wrap;html=1;strokeColor=default;align=center;verticalAlign=middle;fontFamily=Helvetica;fontSize=12;fontColor=default;fillColor=default;" vertex="1" parent="1">
          <mxGeometry x="60" y="575" width="40" height="30" as="geometry" />
        </mxCell>
        <mxCell id="o4GmKYUlnnPbnh4WFb3C-85" value="VBAK" style="rounded=0;whiteSpace=wrap;html=1;strokeColor=default;align=center;verticalAlign=middle;fontFamily=Helvetica;fontSize=12;fontColor=default;fillColor=default;" vertex="1" parent="1">
          <mxGeometry x="60" y="610" width="40" height="30" as="geometry" />
        </mxCell>
        <mxCell id="o4GmKYUlnnPbnh4WFb3C-87" value="" style="endArrow=none;html=1;rounded=0;fontFamily=Helvetica;fontSize=12;fontColor=default;" edge="1" parent="1">
          <mxGeometry width="50" height="50" relative="1" as="geometry">
            <mxPoint x="670" y="369.77" as="sourcePoint" />
            <mxPoint x="710" y="369.77" as="targetPoint" />
          </mxGeometry>
        </mxCell>
        <mxCell id="o4GmKYUlnnPbnh4WFb3C-88" value="" style="endArrow=none;html=1;rounded=0;fontFamily=Helvetica;fontSize=12;fontColor=default;" edge="1" parent="1">
          <mxGeometry width="50" height="50" relative="1" as="geometry">
            <mxPoint x="670" y="389.89" as="sourcePoint" />
            <mxPoint x="710" y="389.89" as="targetPoint" />
          </mxGeometry>
        </mxCell>
        <mxCell id="o4GmKYUlnnPbnh4WFb3C-89" value="" style="endArrow=none;html=1;rounded=0;fontFamily=Helvetica;fontSize=12;fontColor=default;exitX=0.989;exitY=0.068;exitDx=0;exitDy=0;exitPerimeter=0;" edge="1" parent="1">
          <mxGeometry width="50" height="50" relative="1" as="geometry">
            <mxPoint x="619.9999999999999" y="359.85" as="sourcePoint" />
            <mxPoint x="690.77" y="359.77" as="targetPoint" />
          </mxGeometry>
        </mxCell>
        <mxCell id="o4GmKYUlnnPbnh4WFb3C-90" value="" style="endArrow=none;html=1;rounded=0;fontFamily=Helvetica;fontSize=12;fontColor=default;" edge="1" parent="1">
          <mxGeometry width="50" height="50" relative="1" as="geometry">
            <mxPoint x="690" y="370" as="sourcePoint" />
            <mxPoint x="690" y="360" as="targetPoint" />
            <Array as="points">
              <mxPoint x="690" y="370" />
            </Array>
          </mxGeometry>
        </mxCell>
        <mxCell id="o4GmKYUlnnPbnh4WFb3C-91" value="" style="endArrow=none;html=1;rounded=0;fontFamily=Helvetica;fontSize=12;fontColor=default;exitX=1.004;exitY=0.839;exitDx=0;exitDy=0;exitPerimeter=0;" edge="1" parent="1" source="o4GmKYUlnnPbnh4WFb3C-4">
          <mxGeometry width="50" height="50" relative="1" as="geometry">
            <mxPoint x="620" y="400" as="sourcePoint" />
            <mxPoint x="690" y="400" as="targetPoint" />
          </mxGeometry>
        </mxCell>
        <mxCell id="o4GmKYUlnnPbnh4WFb3C-92" value="" style="endArrow=none;html=1;rounded=0;fontFamily=Helvetica;fontSize=12;fontColor=default;" edge="1" parent="1">
          <mxGeometry width="50" height="50" relative="1" as="geometry">
            <mxPoint x="690" y="400" as="sourcePoint" />
            <mxPoint x="690" y="390" as="targetPoint" />
            <Array as="points">
              <mxPoint x="690" y="400" />
              <mxPoint x="690" y="390" />
            </Array>
          </mxGeometry>
        </mxCell>
        <mxCell id="o4GmKYUlnnPbnh4WFb3C-94" value="" style="rounded=0;whiteSpace=wrap;html=1;strokeColor=default;align=center;verticalAlign=middle;fontFamily=Helvetica;fontSize=12;fontColor=default;fillColor=default;" vertex="1" parent="1">
          <mxGeometry x="670" y="375" width="40" height="10" as="geometry" />
        </mxCell>
        <mxCell id="o4GmKYUlnnPbnh4WFb3C-96" value="X1" style="text;html=1;align=center;verticalAlign=middle;whiteSpace=wrap;rounded=0;fontFamily=Helvetica;fontSize=12;fontColor=default;" vertex="1" parent="1">
          <mxGeometry x="620" y="350" width="30" height="10" as="geometry" />
        </mxCell>
        <mxCell id="o4GmKYUlnnPbnh4WFb3C-97" value="X2" style="text;html=1;align=center;verticalAlign=middle;whiteSpace=wrap;rounded=0;fontFamily=Helvetica;fontSize=12;fontColor=default;" vertex="1" parent="1">
          <mxGeometry x="620" y="390" width="30" height="10" as="geometry" />
        </mxCell>
        <mxCell id="o4GmKYUlnnPbnh4WFb3C-98" value="CNT1" style="rounded=0;whiteSpace=wrap;html=1;strokeColor=default;align=center;verticalAlign=middle;fontFamily=Helvetica;fontSize=12;fontColor=default;fillColor=default;" vertex="1" parent="1">
          <mxGeometry x="650" y="410" width="50" height="20" as="geometry" />
        </mxCell>
        <mxCell id="o4GmKYUlnnPbnh4WFb3C-99" value="CNT2" style="rounded=0;whiteSpace=wrap;html=1;strokeColor=default;align=center;verticalAlign=middle;fontFamily=Helvetica;fontSize=12;fontColor=default;fillColor=default;" vertex="1" parent="1">
          <mxGeometry x="650" y="430" width="50" height="20" as="geometry" />
        </mxCell>
        <mxCell id="o4GmKYUlnnPbnh4WFb3C-100" value="" style="endArrow=none;html=1;rounded=0;fontFamily=Helvetica;fontSize=12;fontColor=default;entryX=0;entryY=0.5;entryDx=0;entryDy=0;exitX=1;exitY=0.25;exitDx=0;exitDy=0;" edge="1" parent="1" source="o4GmKYUlnnPbnh4WFb3C-7" target="o4GmKYUlnnPbnh4WFb3C-98">
          <mxGeometry width="50" height="50" relative="1" as="geometry">
            <mxPoint x="650" y="490" as="sourcePoint" />
            <mxPoint x="700" y="440" as="targetPoint" />
          </mxGeometry>
        </mxCell>
        <mxCell id="o4GmKYUlnnPbnh4WFb3C-101" value="" style="endArrow=none;html=1;rounded=0;fontFamily=Helvetica;fontSize=12;fontColor=default;entryX=0;entryY=0.5;entryDx=0;entryDy=0;" edge="1" parent="1" target="o4GmKYUlnnPbnh4WFb3C-99">
          <mxGeometry width="50" height="50" relative="1" as="geometry">
            <mxPoint x="620" y="439.77" as="sourcePoint" />
            <mxPoint x="644" y="439.77" as="targetPoint" />
          </mxGeometry>
        </mxCell>
      </root>
    </mxGraphModel>
  </diagram>
</mxfile>
